HIERARCHY
ROOT Hips
{
	OFFSET 0.000000 0.000000 0.000000 
	CHANNELS 6 Xposition Yposition Zposition Zrotation Yrotation Xrotation
	JOINT LeftUpLeg
	{
		OFFSET 1.363060 -1.794630 0.839290 
		CHANNELS 3 Zrotation Yrotation Xrotation
		JOINT LeftLeg
		{
			OFFSET 2.448110 -6.726130 0.000000 
			CHANNELS 3 Zrotation Yrotation Xrotation
			JOINT LeftFoot
			{
				OFFSET 2.562200 -7.039590 0.000000 
				CHANNELS 3 Zrotation Yrotation Xrotation
				JOINT LeftToeBase
				{
					OFFSET 0.157640 -0.433110 2.322550 
					CHANNELS 3 Zrotation Yrotation Xrotation
					End Site
					{
						OFFSET 0.000000 0.000000 0.000000 
					}
				}
			}
		}
	}
	JOINT RightUpLeg
	{
		OFFSET -1.305520 -1.794630 0.839290 
		CHANNELS 3 Zrotation Yrotation Xrotation
		JOINT RightLeg
		{
			OFFSET -2.542530 -6.985550 0.000000 
			CHANNELS 3 Zrotation Yrotation Xrotation
			JOINT RightFoot
			{
				OFFSET -2.568260 -7.056230 0.000000 
				CHANNELS 3 Zrotation Yrotation Xrotation
				JOINT RightToeBase
				{
					OFFSET -0.164730 -0.452590 2.363150 
					CHANNELS 3 Zrotation Yrotation Xrotation
					End Site
					{
						OFFSET 0.000000 0.000000 0.000000 
					}
				}
			}
		}
	}
	JOINT Spine
	{
		OFFSET 0.028270 2.035590 -0.193380 
		CHANNELS 3 Zrotation Yrotation Xrotation
		JOINT Spine1
		{
			OFFSET 0.056720 2.048850 -0.042750 
			CHANNELS 3 Zrotation Yrotation Xrotation
			JOINT Neck1
			{
				OFFSET -0.054170 1.746240 0.172020 
				CHANNELS 3 Zrotation Yrotation Xrotation
				JOINT Head
				{
					OFFSET 0.104070 1.761360 -0.123970 
					CHANNELS 3 Zrotation Yrotation Xrotation
					End Site
					{
						OFFSET 0.000000 0.000000 0.000000 
					}
				}
			}
			JOINT LeftArm
			{
				OFFSET 3.362410 1.200890 -0.311210 
				CHANNELS 3 Zrotation Yrotation Xrotation
				JOINT LeftForeArm
				{
					OFFSET 4.983000 -0.000000 -0.000000 
					CHANNELS 3 Zrotation Yrotation Xrotation
					JOINT LeftHand
					{
						OFFSET 3.483560 -0.000000 -0.000000 
						CHANNELS 3 Zrotation Yrotation Xrotation
						JOINT LeftHandIndex1
						{
							OFFSET 0.715260 -0.000000 -0.000000 
							CHANNELS 3 Zrotation Yrotation Xrotation
							End Site
							{
								OFFSET 0.000000 0.000000 0.000000 
							}
						}
					}
				}
			}
			JOINT RightArm
			{
				OFFSET -3.136600 1.374050 -0.404650 
				CHANNELS 3 Zrotation Yrotation Xrotation
				JOINT RightForeArm
				{
					OFFSET -5.241900 -0.000000 -0.000000 
					CHANNELS 3 Zrotation Yrotation Xrotation
					JOINT RightHand
					{
						OFFSET -3.444170 -0.000000 -0.000000 
						CHANNELS 3 Zrotation Yrotation Xrotation
						JOINT RightHandIndex1
						{
							OFFSET -0.622530 -0.000000 -0.000000 
							CHANNELS 3 Zrotation Yrotation Xrotation
							End Site
							{
								OFFSET 0.000000 0.000000 0.000000 
							}
						}
					}
				}
			}
		}
	}
}
MOTION
Frames: 9
Frame Time: 0.041667
-2.174773 18.088292 2.569188 -0.626972 -15.251449 4.604543 -3.355236 -12.966873 -5.544370 -0.976202 3.814113 12.626629 -6.300539 21.999388 -10.473172 0.335500 -3.722300 -10.296800 11.748999 29.472790 -8.549040 -1.416740 -5.767496 21.253809 4.786895 -16.331975 -3.086370 -0.318200 3.625900 -10.026600 -9.300131 3.086893 12.876430 -2.613611 1.735850 -6.444801 20.615377 -14.082092 5.402135 5.425900 -6.305300 4.986900 -67.147335 -5.103782 28.114375 16.318365 -25.507881 -4.239269 -1.013042 -0.693528 17.175873 -7.125000 0.000000 0.000000 14.465356 40.002421 64.684453 -65.707417 53.929174 -46.493777 0.974785 0.567248 53.958354 7.125000 0.000000 0.000000 
-2.193916 18.083239 2.567439 -0.675644 -15.343823 4.686594 -3.259845 -12.898007 -5.679201 -0.959946 3.865614 12.772082 -6.262394 21.890487 -10.584806 0.315700 -3.611700 -9.986600 11.856337 29.553478 -8.789930 -1.466917 -5.846924 21.533879 4.754571 -16.242145 -3.087578 -0.325500 3.667200 -10.142200 -9.254544 3.024057 12.767024 -2.573024 1.710534 -6.500867 20.646644 -14.032967 5.093702 5.453600 -6.307000 4.890100 -67.088794 -5.015550 28.039690 15.922929 -24.994065 -4.047405 -1.027694 -0.707985 17.100297 -7.125000 0.000000 0.000000 14.406434 39.919745 64.452147 -66.195438 54.081102 -46.951585 0.972037 0.576160 53.556837 7.125000 0.000000 0.000000 
-2.217140 18.076534 2.568605 -0.596108 -15.469790 4.678779 -3.298313 -12.771787 -5.723182 -0.944582 3.900909 12.884104 -6.271674 21.919986 -10.591780 0.335800 -3.724200 -10.302000 11.853558 29.545879 -9.023648 -1.520609 -5.946972 21.860151 4.676779 -16.016802 -3.084438 -0.331600 3.700700 -10.236100 -9.329581 3.019985 12.779559 -2.498317 1.709643 -6.500956 20.570708 -14.042834 4.891529 5.434200 -6.328000 4.831900 -67.038187 -4.898972 27.958500 15.582299 -24.547055 -3.885759 -1.039309 -0.709264 16.805010 -7.125000 0.000000 0.000000 14.285601 39.810836 63.864223 -66.669651 54.232732 -47.403178 0.975443 0.609405 53.121938 7.125000 0.000000 0.000000 
-2.242987 18.070510 2.572589 -0.527339 -15.514486 4.647542 -3.324433 -12.894968 -5.643827 -0.935434 3.932747 12.997211 -6.279339 21.967424 -10.792131 0.343200 -3.764400 -10.414600 11.870458 29.473187 -9.227676 -1.577315 -6.059111 22.228952 4.573977 -15.721049 -3.219018 -0.308500 3.570800 -9.872300 -9.288727 2.936581 12.896173 -2.401905 1.670523 -6.467130 20.449219 -13.996992 4.665939 5.415700 -6.322600 4.771500 -67.039792 -4.771467 27.605156 15.308412 -24.182743 -3.757804 -1.056003 -0.693880 16.892128 -7.125000 0.000000 0.000000 13.974105 39.823365 62.950687 -67.251500 54.423004 -47.967334 0.983530 0.658043 52.784976 7.125000 0.000000 0.000000 
-2.268057 18.064679 2.573853 -0.544058 -15.535136 4.658031 -3.260729 -13.069813 -5.606193 -0.923698 3.975288 13.120953 -6.300768 22.050496 -10.994575 0.346400 -3.782000 -10.464100 11.981684 29.450637 -9.446353 -1.639805 -6.171076 22.615327 4.482434 -15.459302 -3.353887 -0.294100 3.487300 -9.638500 -9.215075 2.802068 12.927703 -2.355831 1.606257 -6.505678 20.399272 -13.925904 4.504812 5.414500 -6.296200 4.732500 -67.028160 -4.581351 27.099390 15.040500 -23.830697 -3.635566 -1.065038 -0.680453 17.112342 -7.125000 0.000000 0.000000 13.565235 39.873867 61.864100 -67.945213 54.649186 -48.624607 0.984688 0.683536 52.345870 7.125000 0.000000 0.000000 
-2.295945 18.057489 2.574727 -0.508442 -15.571339 4.671701 -3.228237 -13.020427 -5.669039 -0.905726 4.022113 13.249514 -6.312014 22.081390 -10.995355 0.364300 -3.877200 -10.731500 12.064661 29.498569 -9.672493 -1.710834 -6.291680 23.020898 4.432597 -15.325383 -3.433198 -0.310800 3.583900 -9.908900 -9.248388 2.709322 12.794502 -2.296602 1.566008 -6.630364 20.323466 -13.955049 4.518169 5.388700 -6.310700 4.731700 -66.989827 -4.236297 26.724526 14.815783 -23.544709 -3.535446 -1.065130 -0.674895 17.124859 -7.125000 0.000000 0.000000 13.180899 39.808075 60.702067 -68.690628 54.899859 -49.332197 0.990265 0.696162 51.905279 7.125000 0.000000 0.000000 
-2.326068 18.048063 2.582792 -0.540490 -15.613062 4.636215 -3.138834 -12.829351 -5.717492 -0.884857 4.069700 13.370278 -6.289607 21.999025 -10.894323 0.381600 -3.967300 -10.984700 12.249081 29.538339 -9.758390 -1.781559 -6.412640 23.449313 4.334721 -15.045668 -3.599540 -0.291300 3.471000 -9.592900 -9.244360 2.616222 12.745403 -2.304586 1.520449 -6.676173 20.374084 -13.914174 4.299541 5.423100 -6.310000 4.663700 -66.958943 -3.935167 26.283018 14.550343 -23.197897 -3.417599 -1.075377 -0.678375 17.176384 -7.125000 0.000000 0.000000 12.755471 39.772245 59.404777 -69.443336 55.149181 -50.050179 0.996506 0.728412 51.423682 7.125000 0.000000 0.000000 
-2.358426 18.037860 2.592995 -0.614417 -15.673242 4.617751 -3.009098 -12.682667 -5.766565 -0.864848 4.112231 13.473323 -6.300898 22.016906 -10.835692 0.415400 -4.137200 -11.463000 12.472804 29.532781 -9.856102 -1.849454 -6.529999 23.875204 4.193067 -14.631709 -3.751717 -0.257000 3.261900 -9.008700 -9.223973 2.490412 12.748352 -2.315950 1.457113 -6.646287 20.354210 -13.808645 4.152212 5.433300 -6.272000 4.604300 -66.866118 -3.669966 25.860568 14.207949 -22.738513 -3.267282 -1.086740 -0.679827 17.146468 -7.125000 0.000000 0.000000 12.229549 39.933147 57.930450 -70.106310 55.368753 -50.680458 0.996842 0.768240 50.804083 7.125000 0.000000 0.000000 
-2.393601 18.028532 2.600283 -0.586595 -15.646820 4.603833 -2.949434 -12.601000 -5.817136 -0.851894 4.133231 13.531837 -6.324386 22.070611 -10.771327 0.436500 -4.239500 -11.751500 12.580059 29.474048 -10.046884 -1.917091 -6.647613 24.272489 4.113583 -14.409988 -3.864331 -0.255500 3.252200 -8.981800 -9.234420 2.330819 12.746616 -2.269509 1.379478 -6.551291 20.455804 -13.636759 3.616323 5.508000 -6.234700 4.426500 -66.791581 -3.445345 25.366680 13.867895 -22.268330 -3.119407 -1.092089 -0.685075 17.142808 -7.125000 0.000000 0.000000 11.429532 40.222437 56.296427 -70.791950 55.595339 -51.330453 0.993577 0.810186 49.973442 7.125000 0.000000 0.000000 
